<svg viewBox="0 0 100 100" xmlns="http://www.w3.org/2000/svg">
    <defs>
        <clipPath id="clip">
            <rect x="0" y="0" width="100" height="100" />
        </clipPath>
    </defs>
    <g clipPath="url(#clip)">
        <g transform="translate(-2, 0)">
            <rect x="30" y="10" width="40" height="10" fill="#22d3ee" opacity="0.8" />
            <rect x="30" y="80" width="40" height="10" fill="#22d3ee" opacity="0.8" />
            <rect x="20" y="20" width="10" height="60" fill="#22d3ee" opacity="0.8" />
            <rect x="70" y="20" width="10" height="60" fill="#22d3ee" opacity="0.8" />
        </g>
        <g transform="translate(2, 0)">
            <rect x="30" y="10" width="40" height="10" fill="#e879f9" opacity="0.8" />
            <rect x="30" y="80" width="40" height="10" fill="#e879f9" opacity="0.8" />
            <rect x="20" y="20" width="10" height="60" fill="#e879f9" opacity="0.8" />
            <rect x="70" y="20" width="10" height="60" fill="#e879f9" opacity="0.8" />
        </g>
        <rect x="30" y="10" width="40" height="10" fill="#fff" />
        <rect x="30" y="80" width="40" height="10" fill="#fff" />
        <rect x="20" y="20" width="10" height="60" fill="#fff" />
        <rect x="70" y="20" width="10" height="60" fill="#fff" />
        <rect x="15" y="30" width="15" height="5" fill="#22d3ee" />
        <rect x="75" y="60" width="20" height="5" fill="#e879f9" />
    </g>
</svg>
